<svg xmlns="http://www.w3.org/2000/svg" version="1.1" xmlns:xlink="http://www.w3.org/1999/xlink" xmlns:svgjs="http://svgjs.com/svgjs" width="1440" height="600" preserveAspectRatio="none" viewBox="0 0 1440 600"><g mask="url(&quot;#SvgjsMask1004&quot;)" fill="none"><rect width="1440" height="600" x="0" y="0" fill="rgba(128, 175, 251, 1)"></rect><path d="M0,507.342C105.882,509.623,216.91,532.775,310.322,482.87C406.488,431.494,468.432,333.768,511.987,233.817C555.031,135.038,558.552,27.832,555.547,-79.876C552.195,-200.016,575.291,-339.554,493.534,-427.649C411.774,-515.747,270.589,-500.408,151.339,-515.415C49.821,-528.19,-49.858,-532.545,-149.323,-508.547C-252.871,-483.564,-361.18,-453.888,-432.307,-374.596C-503.903,-294.782,-531.196,-184.211,-536.334,-77.113C-541.18,23.895,-500.219,117.302,-460.364,210.241C-419.595,305.309,-388.761,413.595,-301.848,469.685C-214.892,525.803,-103.468,505.113,0,507.342" fill="#2f7cf9"></path><path d="M1440 1102.002C1537.46 1099.408 1630.577 1075.714 1718.039 1032.637 1814.284 985.2339999999999 1914.275 933.883 1968.864 841.524 2025.9769999999999 744.894 2060.908 621.896 2023.319 516.131 1986.615 412.858 1861.838 377.93600000000004 1778.715 306.502 1710.057 247.49900000000002 1659.231 171.03300000000002 1577.198 132.74599999999998 1485.879 90.12599999999998 1385.46 58.480999999999995 1286.346 76.702 1182.3690000000001 95.81700000000001 1087.79 154.925 1019.155 235.33499999999998 950.794 315.423 902.576 417.86 905.297 523.121 907.865 622.484 991.039 695.77 1033.38 785.697 1075.079 874.259 1075.021 987.5899999999999 1152.285 1047.693 1230.913 1108.857 1340.419 1104.652 1440 1102.002" fill="#d1e2fe"></path></g><defs><mask id="SvgjsMask1004"><rect width="1440" height="600" fill="#ffffff"></rect></mask></defs></svg>